<?xml version="1.0" standalone="no"?>
<!DOCTYPE svg PUBLIC "-//W3C//DTD SVG 20010904//EN"
 "http://www.w3.org/TR/2001/REC-SVG-20010904/DTD/svg10.dtd">
<svg version="1.0" xmlns="http://www.w3.org/2000/svg"
 width="300.000000pt" height="300.000000pt" viewBox="0 0 300.000000 300.000000"
 preserveAspectRatio="xMidYMid meet">
<metadata>
Created by potrace 1.11, written by Peter Selinger 2001-2013
</metadata>
<g transform="translate(0.000000,300.000000) scale(0.100000,-0.100000)"
fill="#000000" stroke="none">
<path d="M2380 2381 c0 -5 -11 -12 -24 -15 -22 -5 -77 -45 -132 -96 -12 -11
-26 -20 -31 -20 -5 0 -24 -11 -43 -25 -18 -13 -37 -22 -41 -19 -5 3 -9 1 -9
-4 0 -11 -131 -88 -143 -84 -5 1 -15 -2 -23 -9 -7 -6 -17 -8 -22 -5 -6 3 -15
0 -21 -8 -9 -10 -38 -13 -120 -11 -60 1 -114 6 -120 10 -15 9 -68 15 -163 19
-42 2 -80 6 -85 9 -11 6 -95 3 -108 -4 -5 -4 -19 -4 -30 -2 -48 10 -75 12 -75
5 0 -4 -10 -7 -22 -8 -70 -3 -120 -9 -123 -14 -2 -3 -21 -7 -42 -8 -21 -2 -42
-7 -47 -12 -6 -6 -20 -10 -32 -10 -13 0 -29 -6 -36 -13 -7 -7 -32 -18 -55 -25
-23 -7 -49 -20 -58 -28 -9 -9 -19 -14 -22 -11 -3 3 -11 1 -18 -6 -7 -7 -29
-25 -49 -42 -21 -16 -46 -37 -56 -47 -10 -9 -21 -14 -24 -11 -3 4 -6 2 -6 -3
0 -6 -20 -32 -45 -59 -60 -67 -150 -250 -171 -346 -17 -85 -22 -122 -24 -181
-1 -38 -2 -80 -3 -95 -1 -46 14 -174 27 -223 6 -23 1 -30 -41 -60 -26 -19 -50
-38 -51 -42 -2 -5 -11 -15 -19 -24 -32 -32 -20 -106 24 -140 12 -10 10 -17 -8
-48 -21 -36 -21 -38 -5 -74 19 -41 79 -92 108 -92 22 0 22 1 2 -45 -8 -20 -13
-40 -10 -43 3 -3 2 -10 -3 -16 -5 -6 -12 -40 -15 -76 -4 -36 -9 -81 -11 -100
-4 -33 -9 -181 -6 -207 1 -10 240 -13 1162 -13 l1161 0 -7 32 c-4 18 -11 38
-15 43 -12 16 -59 135 -53 135 3 0 0 7 -7 15 -6 8 -9 19 -5 25 3 5 2 10 -3 10
-5 0 -17 21 -27 48 -10 26 -22 51 -26 56 -5 6 -9 23 -9 38 0 15 -4 28 -10 28
-5 0 -10 8 -10 18 0 10 -7 27 -15 38 -8 10 -15 30 -15 45 0 14 -5 30 -12 37
-9 9 -9 21 0 51 9 27 9 47 2 65 -5 14 -7 26 -4 26 4 0 1 6 -5 14 -6 8 -11 18
-9 22 1 5 -8 29 -21 54 -12 25 -29 65 -38 90 -8 25 -23 63 -33 85 -10 22 -19
56 -21 75 -2 19 -5 39 -8 45 -9 18 -12 75 -3 75 5 0 22 11 38 25 16 14 32 25
36 25 4 0 33 26 64 58 64 65 115 162 116 222 0 42 -33 100 -58 100 -21 0 -18
7 30 79 69 102 96 197 73 256 -17 45 -34 58 -87 63 l-49 4 19 38 c10 20 21 48
23 61 2 13 9 37 16 53 21 53 5 151 -33 199 -22 28 -126 51 -126 28z"/>
</g>
</svg>
