<!--?xml version="1.0" encoding="utf-8"?-->
<!-- Generator: Adobe Illustrator 22.1.0, SVG Export Plug-In . SVG Version: 6.00 Build 0)  -->
<svg version="1.1" id="_x30_" xmlns="http://www.w3.org/2000/svg" xmlns:xlink="http://www.w3.org/1999/xlink" x="0px" y="0px" viewBox="0 0 800 498" style="enable-background:new 0 0 800 498;" xml:space="preserve">
<style type="text/css">
	.stblack{fill:#000000;}
	.st0{fill:#FFFFFF;}
</style>
<g>
	<path class="stblack" d="M569.3,463.4c-2.4,0-4.8-0.6-7-1.9l-96-57.9c-50.7,1-111.3,1.8-145.5,1.8c-23.5,0-25.8-0.3-27.5-0.7
		c-4.1-0.6-32.5-2.5-57.6-4.1c-73.6-4.8-105.6-7.1-112.6-9.1c-8.9-2.5-14.8-10.3-42.1-63.5c-1.9-3.7-4.2-8.2-6.7-12.9
		c-4-7.6-8.1-15.5-11.2-21.6c-2.6-5.2-4.3-8.9-6-12.6c-1.4-3.1-2.8-6-4.7-9.9c-1.7-3.4-4-8.1-6.3-12.5c-2.5-4.9-4.8-9.5-6.5-12.9
		c-2.2-4.5-4.2-8.7-6.1-12.6l-5.4-11.3c-3.2-6.7-5.6-11.6-6.4-13.3c-5.9-11.9,0.5-29.9,54.2-126.4c6.9-12.4,14.1-25.3,16-29.4
		c1.9-9.1,11.9-11.2,18.8-12.6c5.4-1.1,13.1-2.5,23-4.1c22.4-3.6,50.3-7.5,69.8-10c49.4-6.5,106.1-13.2,119-13.2
		c6,0,77.3,1.6,152.8,4.5c147.7,5.7,158.4,10.6,163.5,13c23.2,10.7,113,99,117.7,106.1c3,4.5,3.7,7.3,0.1,40.1
		c-1.9,17.5-4.9,40.5-8.3,64.8c-13.2,94.8-17.4,101.7-19,104.2c-3.2,5.2-5.1,8.3-81.8,31.1c-31.5,9.4-65.5,18.9-79.8,22.4l14.4,47.3
		c1.6,5.3-0.2,11.2-4.6,14.6C575.2,462.4,572.3,463.4,569.3,463.4z"></path>
	<g>
		<path class="stblack" d="M231.8,64.9l356.9,356.9c1-0.2,2.1-0.5,3.3-0.8L233.9,62.8L231.8,64.9z"></path>
		<path class="stblack" d="M210.3,86.4l392.2,392.2c0.4-1,0.8-2,1-3.1L212.4,84.3L210.3,86.4z"></path>
		<path class="stblack" d="M239,57.7l361.2,361.2c1-0.3,2.1-0.6,3.2-0.9L241,55.7L239,57.7z"></path>
		<path class="stblack" d="M203.2,93.5l392,392c0.9-0.4,1.8-0.8,2.7-1.4L205.2,91.5L203.2,93.5z"></path>
		<polygon points="188.8,107.9 538.7,457.8 549.1,464 190.9,105.8 		"></polygon>
		<path class="stblack" d="M196,100.7l378.8,378.8l8.4,5.1c0.5,0.3,1,0.6,1.6,0.8L198,98.7L196,100.7z"></path>
		<path class="stblack" d="M246.2,50.6l365.3,365.3c1.1-0.3,2.1-0.6,3.2-0.9L248.2,48.5L246.2,50.6z"></path>
		<path class="stblack" d="M776.5,208.3c0.1-1.2,0.3-2.5,0.4-3.7L619.1,46.7c-1.4-0.1-2.9-0.2-4.5-0.4L776.5,208.3z"></path>
		<path class="stblack" d="M773.4,233.8c0.2-1.2,0.3-2.4,0.5-3.6L588.2,44.5c-1.4-0.1-2.9-0.2-4.4-0.3L773.4,233.8z"></path>
		<path class="stblack" d="M775,221.1c0.2-1.2,0.3-2.4,0.4-3.6L603.5,45.5c-1.4-0.1-2.9-0.2-4.4-0.3L775,221.1z"></path>
		<path class="stblack" d="M771.7,246.4c0.2-1.2,0.3-2.4,0.5-3.6L573,43.6c-1.4-0.1-2.9-0.2-4.3-0.2L771.7,246.4z"></path>
		<path class="stblack" d="M779.3,182.4c0.1-1.3,0.2-2.6,0.3-3.8l-128-128c-1.4-0.3-3-0.6-5-0.9L779.3,182.4z"></path>
		<path class="stblack" d="M780,168.8c0-1.8-0.2-3.3-0.4-4.5l-83.8-83.8c-8.5-7.5-16.5-14.1-23.1-19L780,168.8z"></path>
		<polygon points="181.7,115 502.6,436 513,442.2 183.7,113 		"></polygon>
		<path class="stblack" d="M778,195.4c0.1-1.3,0.3-2.5,0.4-3.7L634.9,48.2c-1.4-0.2-3-0.3-4.6-0.5L778,195.4z"></path>
		<path class="stblack" d="M174.5,122.2l304.7,304.7c1.3,0,2.7-0.1,4-0.1L176.5,120.2L174.5,122.2z"></path>
		<path class="stblack" d="M67,229.7l194.4,194.4c1.5,0.1,2.9,0.2,4.4,0.3L69.1,227.7L67,229.7z"></path>
		<path class="stblack" d="M74.2,222.5l202.6,202.6c1.5,0.1,2.9,0.2,4.4,0.3L76.2,220.5L74.2,222.5z"></path>
		<path class="stblack" d="M54.7,242l-2,2l178,178c1.4,0.1,2.9,0.2,4.4,0.3L54.7,242z"></path>
		<path class="stblack" d="M188.9,419.2L81.8,312.1c0.7,1.4,1.4,2.9,2.2,4.5c0.6,1.1,1.2,2.4,1.8,3.6l98.7,98.7C185.9,419,187.4,419.1,188.9,419.2z"></path>
		<path class="stblack" d="M81.3,215.4l210.8,210.8c1.5,0.1,3,0.2,4.4,0.3L83.4,213.3L81.3,215.4z"></path>
		<path class="stblack" d="M58.4,264.1l157,157c1.4,0.1,2.9,0.2,4.4,0.3L54.6,256.2C55.8,258.7,57.1,261.3,58.4,264.1z"></path>
		<path class="stblack" d="M762.7,309.1c0.2-1.2,0.4-2.3,0.5-3.5L497.9,40.2c-0.5,0-1,0-1.6-0.1c-0.9,0-1.8-0.1-2.7-0.1L762.7,309.1z"></path>
		<path class="stblack" d="M88.5,208.2l219,219c1.8,0.1,3.3,0.3,4.5,0.4L90.6,206.2L88.5,208.2z"></path>
		<path class="stblack" d="M160.2,136.5L451,427.4c1.3,0,2.7,0,4-0.1L162.2,134.5L160.2,136.5z"></path>
		<path class="stblack" d="M145.8,150.9l277,277c1.3,0,2.7,0,4-0.1L147.9,148.8L145.8,150.9z"></path>
		<path class="stblack" d="M770,259.1c0.2-1.2,0.3-2.4,0.5-3.6L557.8,42.8c-1.4-0.1-2.9-0.1-4.3-0.2L770,259.1z"></path>
		<path class="stblack" d="M167.3,129.4l297.8,297.8c1.3,0,2.7,0,4-0.1L169.4,127.3L167.3,129.4z"></path>
		<path class="stblack" d="M138.7,158l270,270c1.3,0,2.7,0,4-0.1l-272-272L138.7,158z"></path>
		<path class="stblack" d="M102.8,193.9l234.7,234.7c1.3,0,2.7,0,4.1,0L104.9,191.8L102.8,193.9z"></path>
		<path class="stblack" d="M124.3,172.4l255.9,255.9c1.3,0,2.7,0,4.1,0l-258-258L124.3,172.4z"></path>
		<path class="stblack" d="M59.8,236.9l186.2,186.2c1.4,0.1,2.9,0.2,4.4,0.3L61.9,234.8L59.8,236.9z"></path>
		<polygon points="593.2,436.5 226.7,70 224.7,72.1 595,442.4 		"></polygon>
		<polygon points="217.5,79.2 601.3,463 599.5,457.1 219.5,77.2 		"></polygon>
		<path class="stblack" d="M436.9,427.6c1.3,0,2.7,0,4-0.1L155,141.7l-2,2L436.9,427.6z"></path>
		<path class="stblack" d="M622.6,412.7c1.1-0.3,2.1-0.6,3.2-0.9L258.5,44.4c-1.2,0.2-2.4,0.3-3.6,0.5L622.6,412.7z"></path>
		<path class="stblack" d="M768.2,271.6c0.2-1.2,0.3-2.4,0.5-3.6L542.8,42.1c-1.4-0.1-2.8-0.1-4.3-0.2L768.2,271.6z"></path>
		<path class="stblack" d="M394.5,428.2c1.3,0,2.7,0,4.1,0l-265-265l-2,2L394.5,428.2z"></path>
		<path class="stblack" d="M633.8,409.5c1.1-0.3,2.1-0.6,3.2-0.9L271.2,42.9c-1.2,0.1-2.4,0.3-3.7,0.4L633.8,409.5z"></path>
		<path class="stblack" d="M200,420c1.4,0.1,2.9,0.2,4.4,0.3L68.6,284.5c1.5,2.9,3,5.8,4.2,8.3L200,420z"></path>
		<path class="stblack" d="M169,417.6c1.4,0.1,2.9,0.2,4.5,0.4l-76.5-76.5c1.6,3.1,3.1,6,4.4,8.5L169,417.6z"></path>
		<path class="stblack" d="M153.1,416.1c1.4,0.2,2.9,0.3,4.6,0.5l-45.3-45.3c1.7,3.2,3.2,6.1,4.7,8.8L153.1,416.1z"></path>
		<path class="stblack" d="M370.1,428.4L119.2,177.5l-2,2l248.9,248.9C367.4,428.4,368.8,428.4,370.1,428.4z"></path>
		<path class="stblack" d="M139.1,412.4l-6.2-6.2C135.3,409.2,137.2,411.1,139.1,412.4z"></path>
		<path class="stblack" d="M110,186.7l241.8,241.8c1.3,0,2.7,0,4.1,0L112.1,184.7L110,186.7z"></path>
		<path class="stblack" d="M323,428.4c1.2,0,2.6,0,4.2,0.1L97.7,199l-2,2L323,428.4z"></path>
		<path class="stblack" d="M656,403.1c1.1-0.3,2.1-0.6,3.2-0.9L296.9,39.9c-1.2,0.1-2.4,0.3-3.7,0.4L656,403.1z"></path>
		<path class="stblack" d="M644.9,406.3c1.1-0.3,2.1-0.6,3.2-0.9L284,41.3c-1.2,0.1-2.4,0.3-3.7,0.4L644.9,406.3z"></path>
		<path class="stblack" d="M756.4,345.8c0.2-1.1,0.4-2.2,0.7-3.4L453.3,38.6c-1.4,0-2.8-0.1-4.2-0.1L756.4,345.8z"></path>
		<path class="stblack" d="M753.9,357.6c0.2-1,0.5-2.1,0.8-3.3L438.5,38.1c-1.4,0-2.8-0.1-4.2-0.1L753.9,357.6z"></path>
		<path class="stblack" d="M758.6,333.7c0.2-1.1,0.4-2.3,0.6-3.5L468.1,39.1c-1.4,0-2.8-0.1-4.2-0.1L758.6,333.7z"></path>
		<path class="stblack" d="M764.6,296.7c0.2-1.2,0.4-2.4,0.5-3.6L512.8,40.8c-1.4-0.1-2.8-0.1-4.3-0.2L764.6,296.7z"></path>
		<path class="stblack" d="M766.4,284.2c0.2-1.2,0.3-2.4,0.5-3.6L527.8,41.4c-1.4-0.1-2.8-0.1-4.3-0.2L766.4,284.2z"></path>
		<path class="stblack" d="M760.7,321.5c0.2-1.1,0.4-2.3,0.6-3.5L483,39.6c-1.4-0.1-2.8-0.1-4.3-0.2L760.7,321.5z"></path>
		<path class="stblack" d="M750.3,368.3C750.3,368.3,750.3,368.3,750.3,368.3c0.4-0.6,0.8-1.3,1.3-2.8L423.7,37.6c-1.4,0-2.8-0.1-4.2-0.1
			L750.3,368.3z"></path>
		<path class="stblack" d="M700.1,389.8c1.1-0.3,2.1-0.7,3.1-1L350.1,35.7c-1.7,0-3.1-0.1-4.2-0.1L700.1,389.8z"></path>
		<path class="stblack" d="M689.1,393.2c1.1-0.3,2.1-0.6,3.1-1L336,36c-1.2,0.1-2.4,0.2-3.8,0.3L689.1,393.2z"></path>
		<path class="stblack" d="M667.1,399.8c0.5-0.1,0.9-0.3,1.4-0.4c0.6-0.2,1.2-0.3,1.7-0.5L309.8,38.4c-1.2,0.1-2.4,0.3-3.7,0.4L667.1,399.8z"></path>
		<path class="stblack" d="M678.1,396.5c1.1-0.3,2.1-0.6,3.1-0.9L322.8,37.1c-1.2,0.1-2.5,0.2-3.7,0.4L678.1,396.5z"></path>
		<path class="stblack" d="M721.7,382.8c1.1-0.4,2.1-0.7,3-1L379.4,36.4c-1.4,0-2.8-0.1-4.2-0.1L721.7,382.8z"></path>
		<path class="stblack" d="M711,386.4c1.1-0.3,2.1-0.7,3.1-1L364.8,36.1c-1.5,0-2.9-0.1-4.2-0.1L711,386.4z"></path>
		<path class="stblack" d="M732.3,379.1c1.1-0.4,2-0.8,3-1.1L394.2,36.8c-1.4,0-2.8-0.1-4.2-0.1L732.3,379.1z"></path>
		<path class="stblack" d="M742.4,374.8c1-0.5,1.9-1,2.7-1.4L408.9,37.2c-1.4,0-2.8-0.1-4.2-0.1L742.4,374.8z"></path>
	</g>
	<path class="st0" d="M717.9,338c5.8-9.6,30.7-189.7,27.4-194.6c-3.2-4.9-91.1-91.6-112.1-101.3C612.2,32.5,335.6,26,322.6,26
		c-22.7,0-217.4,24.9-217.4,29.7c0,4.9-77.8,133.6-71.3,146.5c1.4,2.7,5.8,12,12,24.9c1.9,3.9,3.9,8.1,6,12.5
		c3.1,6.4,9.2,18.1,12.8,25.4c4.3,8.7,6,13.2,10.6,22.4c4.9,9.8,13,24.9,17.8,34.3c16.9,33,29.1,55.4,33.8,56.7
		c11.3,3.2,161,11.3,169,12.9c5,1,99.4,0.1,174.1-1.4l99.3,59.9l-19-62.4c5-0.3,8.4-0.6,9.9-0.9C576.4,383.3,714.3,343.9,717.9,338z
		"></path>
</g>
</svg>
